<svg xmlns="http://www.w3.org/2000/svg" viewBox="0 0 400 600">
<path fill="none" stroke-width="6" stroke="black" d="M200,515c-32.45007,0 -81.35338,-6.58129 -98.65814,-46.43932c-5.31893,-3.43324 -9.22588,-6.4447 -11.34186,-8.56068c-5.64565,-5.64565 -17.66598,-33.60267 -27.06368,-69.47537c-20.22751,-20.18314 -12.93632,-90.52463 -12.93632,-90.52463c0,-140 50,-200 150,-200c100,0 150,60 150,200c0,3.49427 -0.07475,7.01346 -0.21804,10.54762c-0.35944,-6.47144 -0.78196,-10.54762 -0.78196,-10.54762h-10c-5,55 -10,60.9 -10,60.9c0,0 -15,39.1 0,34.1c3.28607,-1.09574 6.08304,-3.17436 8.45969,-5.99775c-9.45341,36.60211 -21.73442,65.27248 -27.45969,70.99775c-2.11598,2.11598 -6.02293,5.12745 -11.34186,8.56068c-17.30476,39.85802 -66.20807,46.43932 -98.65814,46.43932zM349.78196,310.54762c-1.08377,26.73051 -6.08819,54.31725 -12.32227,78.45463c13.92993,-16.54836 13.4205,-58.68185 12.32227,-78.45463z"></path>
</svg>