<svg width="100%" height="100%" viewBox="0 0 46 69">
    <path id="ear1" d="M43,13C43,13 23,3 13,3C3,3 3,23 3,33C3,43 6,53 16,63C26,73 43,53 43,53L43,13Z" stroke="black" fill="$[skinColor]" stroke-width="4px"/>
    <g id="ear1-inside" transform="matrix(0.73944,0,0,0.839658,11.2041,10.0674)" stroke="none">
        <path d="M43,13C43,13 23,3 13,3C3,3 3,23 3,33C3,43 6,53 16,63C26,73 43,53 43,53L43,13Z" fill="$[skinShadow]" stroke="none"/>
    </g>
    <path d="M46,54.103L45.286,54.943C45.286,54.943 38.73,62.624 31.187,66.472C25.29,69.481 18.894,70.136 13.879,65.121C3.176,54.419 0,43.702 0,33C0,26.752 0.055,16.76 2.304,9.762C4.204,3.851 7.722,0 13,0C23.434,0 44.342,10.317 44.342,10.317L46,11.146L46,54.103ZM40,14.87C35.153,12.538 20.86,6 13,6C10.268,6 9,8.538 8.016,11.598C5.945,18.04 6,27.248 6,33C6,42.298 8.823,51.581 18.121,60.879C21.109,63.866 24.947,62.92 28.461,61.128C33.643,58.484 38.275,53.744 40,51.86L40,14.87Z"  fill="black"/>
</svg>
