<svg width="100%" height="100%" viewBox="0 0 43 68" >
    <path id="ear2" d="M40,14C40,14 10,-1 5,4C0,9 5,34 10,44C15,54 5,69 40,64L40,14Z" fill="$[skinColor]"/>
    <g id="ear2-inside" transform="matrix(0.692536,0,0,0.782363,12.2985,14.1449)">
        <path d="M40,14C40,14 10,-1 5,4C0,9 5,34 10,44C15,54 5,69 40,64L40,14Z" fill="$[skinShadow]"/>
    </g>
    <path id="ear-border" d="M43,66.602L40.424,66.97C25.062,69.164 17.641,67.399 13.866,64.327C11.219,62.172 10.029,59.329 9.42,56.14C8.758,52.668 8.992,48.693 7.317,45.342C3.668,38.043 0.003,23.085 -0.07,12.977C-0.107,7.786 1.005,3.753 2.879,1.879C3.905,0.853 5.484,0.155 7.579,0.011C9.665,-0.133 12.433,0.262 15.508,1.049C26.291,3.807 41.342,11.317 41.342,11.317L43,12.146L43,66.602ZM7.071,6.174C6.685,6.601 6.502,7.295 6.322,8.121C6.029,9.467 5.917,11.107 5.93,12.933C5.997,22.215 9.332,35.957 12.683,42.658C14.334,45.96 14.583,49.738 15.045,53.288C15.363,55.731 15.699,58.083 17.654,59.673C19.032,60.795 21.118,61.495 24.228,61.816C27.439,62.147 31.596,62.031 37,61.372L37,15.874C32.932,13.92 22.195,8.952 14.022,6.861C12.021,6.35 10.192,6.01 8.695,5.981C8.243,5.973 7.83,5.992 7.466,6.06C7.334,6.084 7.137,6.151 7.071,6.174Z"/>
</svg>
