<svg width="100%" height="100%" viewBox="0 0 46 63" >
    <path id="ear3" d="M43,8C43,8 3,-12 3,28C3,73 43,58 43,58L43,8Z" fill="$[skinColor]"/>
    <g id="ear3-inside" transform="matrix(0.783972,0,0,0.783972,9.2892,13.0481)">
        <path d="M43,8C43,8 3,-12 3,28C3,73 43,58 43,58L43,8Z" fill="$[skinShadow]"/>
    </g>
    <path id="ear-border" d="M46,60.079L44.053,60.809C44.053,60.809 36.466,63.664 27.662,63.38C21.535,63.182 14.87,61.465 9.588,56.514C4.116,51.383 -0,42.658 0,28C0,14.569 4.335,7.305 9.976,3.544C15.291,0 22.003,-0.479 28.169,0.371C36.855,1.569 44.342,5.317 44.342,5.317L46,6.146L46,60.079ZM40,9.932C37.561,8.89 32.713,7.055 27.349,6.315C22.601,5.66 17.397,5.808 13.304,8.536C8.864,11.496 6,17.429 6,28C6,40.343 9.084,47.816 13.692,52.136C17.818,56.005 23.069,57.228 27.856,57.383C32.917,57.547 37.512,56.511 40,55.807L40,9.932Z"/>
</svg>
