<svg width="100%" height="100%" viewBox="0 0 400 600" version="1.1" xmlns="http://www.w3.org/2000/svg" >
    <g id="basketball-4">
        <path id="jersey" d="M80,610C80,610 90,574 90,514C110,504 110,510 110,510C110,510 120,590 200,590C280,590 290,510 290,510C290,510 290,505 310,515C310,575 320,610 320,610L80,610Z" fill="$[primary]" stroke-width="6px"/>
        <g id="pinstripes">
            <path d="M95.5,610L94.5,610L94.5,517.55L95.5,517.55L95.5,610ZM105.5,610L104.5,610L104.5,512.05L105.5,512.05L105.5,610ZM114.5,515L115.5,515L115.5,610L114.5,610L114.5,515ZM124.5,550L125.5,550L125.5,612.05L124.5,612.05L124.5,550ZM134.5,565L135.5,565L135.5,610L134.5,610L134.5,565ZM144.5,575L145.5,575L145.5,610L144.5,610L144.5,575ZM154.5,580L155.5,580L155.5,610L154.5,610L154.5,580ZM164.5,585L165.5,585L165.5,610L164.5,610L164.5,585ZM174.5,590L175.5,590L175.5,610L174.5,610L174.5,590ZM184.5,590L185.5,590L185.5,610L184.5,610L184.5,590ZM194.5,590L195.5,590L195.5,610L194.5,610L194.5,590ZM305.5,610L304.5,610L304.5,517.55L305.5,517.55L305.5,610ZM295.5,610L294.5,610L294.5,512.05L295.5,512.05L295.5,610ZM284.5,515L285.5,515L285.5,610L284.5,610L284.5,515ZM274.5,550L275.5,550L275.5,612.05L274.5,612.05L274.5,550ZM264.5,565L265.5,565L265.5,610L264.5,610L264.5,565ZM254.5,575L255.5,575L255.5,610L254.5,610L254.5,575ZM244.5,580L245.5,580L245.5,610L244.5,610L244.5,580ZM234.5,585L235.5,585L235.5,610L234.5,610L234.5,585ZM224.5,590L225.5,590L225.5,610L224.5,610L224.5,590ZM214.5,590L215.5,590L215.5,610L214.5,610L214.5,590ZM204.5,590L205.5,590L205.5,610L204.5,610L204.5,590Z" fill="$[accent]"/>
        </g>
        <path d="M82,514L98,514C98,575.696 87.589,612.53 87.589,612.53L72.411,607.47C72.411,607.47 81.446,573.99 81.976,519.055C81.992,517.395 82,515.71 82,514ZM302,515L318,515C318,573.304 327.589,607.47 327.589,607.47L312.411,612.53C312.411,612.53 302.507,578.197 302.019,519.504C302.006,518.021 302,516.52 302,515ZM102.062,510.992L117.938,509.008C117.938,509.008 127.035,582 200,582C272.965,582 282.062,509.008 282.062,509.008L297.938,510.992C297.938,510.992 287.035,598 200,598C123.574,598 105.851,530.911 102.666,514.556C102.224,512.285 102.062,510.992 102.062,510.992Z"/>
        <path d="M86,514L94,514C94,574.848 83.795,611.265 83.795,611.265L76.205,608.735C76.205,608.735 85.591,574.388 85.987,517.708C85.996,516.485 86,515.249 86,514ZM306,515L314,515C314,574.152 323.795,608.735 323.795,608.735L316.205,611.265C316.205,611.265 306.525,577.413 306.02,519.696C306.007,518.152 306,516.586 306,515ZM106.072,512.755L113.928,511.245C113.928,511.245 128.207,586 200,586C271.793,586 286.072,511.245 286.072,511.245L293.928,512.755C293.928,512.755 278.208,594 200,594C131.93,594 111.197,532.452 106.966,516.497C106.336,514.12 106.072,512.755 106.072,512.755Z" fill="$[accent]"/>
        <path d="M84,516L88,516C88,576.462 77.883,610.673 77.883,610.673L74.117,609.327C74.117,609.327 83.684,576.427 83.992,518.856C83.997,517.912 84,516.96 84,516ZM312,517L316,517C316,576.538 325.883,609.327 325.883,609.327L322.117,610.673C322.117,610.673 312.361,578.467 312.01,520.231C312.003,519.164 312,518.087 312,517ZM112.021,510.286L115.979,509.714C115.979,509.714 126.711,584 200,584C273.289,584 284.021,509.714 284.021,509.714L287.979,510.286C287.979,510.286 276.711,588 200,588C132.391,588 115.616,527.634 112.587,513.309C112.179,511.381 112.021,510.286 112.021,510.286Z" fill="$[primary]"/>
        <path d="M92,512L96,512C96,572.391 85.909,610.597 85.909,610.597L82.091,609.403C82.091,609.403 91.712,572.535 91.994,514.604C91.998,513.742 92,512.874 92,512ZM304,513L308,513C308,572.609 317.909,609.403 317.909,609.403L314.091,610.597C314.091,610.597 304.369,574.57 304.01,516.319C304.003,515.222 304,514.116 304,513ZM104.022,514.297L107.978,513.703C107.978,513.703 119.734,592 200,592C280.266,592 292.022,513.703 292.022,513.703L295.978,514.297C295.978,514.297 283.734,596 200,596C125.93,596 107.8,532.067 104.602,517.31C104.185,515.385 104.022,514.297 104.022,514.297Z" fill="$[secondary]"/>
    </g>
</svg>
