<svg width="100%" height="100%" viewBox="0 0 400 600" version="1.1" xmlns="http://www.w3.org/2000/svg" >
    <g id="basketball-3" >
        <path id="jersey" d="M80,610C80,610 90,575 90,515C110,505 110,508 110,508C110,508 120,590 200,590C280,590 290,508 290,508C290,508 290,505 310,515C310,575 320,610 320,610L80,610Z" stroke-width="6px" fill="$[primary]"/>
        <path d="M82,515L98,515C98,576.696 87.589,612.53 87.589,612.53L72.411,607.47C72.411,607.47 81.315,575.744 81.963,521.265C81.987,519.209 82,517.12 82,515ZM302,515L318,515C318,573.304 327.589,607.47 327.589,607.47L312.411,612.53C312.411,612.53 302.781,579.383 302.044,521.961C302.015,519.679 302,517.358 302,515ZM102.062,508.992L117.938,507.008C117.938,507.008 127.035,582 200,582C272.965,582 282.062,507.008 282.062,507.008L297.938,508.992C297.938,508.992 287.035,598 200,598C126.143,598 107.109,533.904 103.038,514.496C102.312,511.033 102.062,508.992 102.062,508.992Z"/>
        <path d="M86,515L94,515C94,575.848 83.795,611.265 83.795,611.265L76.205,608.735C76.205,608.735 85.434,576.151 85.975,520.141C85.992,518.449 86,516.735 86,515ZM306,515L314,515C314,574.152 323.795,608.735 323.795,608.735L316.205,611.265C316.205,611.265 306.497,577.572 306.018,519.451C306.006,517.983 306,516.499 306,515ZM106.072,510.755L113.928,509.245C113.928,509.245 128.207,586 200,586C271.793,586 286.072,509.245 286.072,509.245L293.928,510.755C293.928,510.755 278.208,594 200,594C132.764,594 111.712,532.473 107.129,515.21C106.381,512.394 106.072,510.755 106.072,510.755Z" fill="$[accent]"/>
        <path d="M84,517L88,517C88,577.462 77.883,610.673 77.883,610.673L74.117,609.327C74.117,609.327 83.481,578.261 83.979,521.697C83.993,520.151 84,518.585 84,517ZM312,517L316,517C316,576.538 325.883,609.327 325.883,609.327L322.117,610.673C322.117,610.673 312.544,579.249 312.022,521.887C312.008,520.278 312,518.649 312,517ZM112.021,508.286L115.979,507.714C115.979,507.714 126.711,584 200,584C273.289,584 284.021,507.714 284.021,507.714L287.979,508.286C287.979,508.286 276.711,588 200,588C134.169,588 116.533,529.294 112.855,512.642C112.247,509.89 112.021,508.286 112.021,508.286Z" fill="$[primary]"/>
        <path d="M92,513L96,513C96,573.391 85.909,610.597 85.909,610.597L82.091,609.403C82.091,609.403 91.531,574.352 91.983,517.248C91.994,515.845 92,514.429 92,513ZM304,513L308,513C308,572.609 317.909,609.403 317.909,609.403L314.091,610.597C314.091,610.597 304.386,574.813 304.011,516.471C304.004,515.323 304,514.166 304,513ZM104.022,512.297L107.978,511.703C107.978,511.703 119.734,592 200,592C280.266,592 292.022,511.703 292.022,511.703L295.978,512.297C295.978,512.297 283.734,596 200,596C127.702,596 108.7,533.599 104.858,516.554C104.251,513.858 104.022,512.297 104.022,512.297Z" fill="$[secondary]"/>
    </g>
</svg>
