<svg width="100%" height="100%" viewBox="0 0 400 600" version="1.1" >
    <g id="basketball-2">
        <path id="primary" d="M80,610C80,610 81.682,577.455 81.682,517.455C101.682,507.455 110,510 110,510C110,510 120,590 200,590C280,590 290,510 290,510C290,510 302.748,509.68 313.466,517.594C313.466,577.594 320,610 320,610L80,610Z" fill="$[primary]"/>
        <path id="secondary" d="M85,575L85,600L315,600L315,575L250,575C250,575 230,590 200,590C170,590 150,575 150,575L85,575Z" fill="$[secondary]"/>
        <path id="border" d="M81.319,517.516L96.3,512.238C96.3,573.934 87.589,612.53 87.589,612.53L72.411,607.47C72.411,607.47 80.962,576.904 81.309,520.768C81.315,519.694 81.319,518.61 81.319,517.516ZM303.204,512.34L318,520C318,578.304 327.589,607.47 327.589,607.47L312.411,612.53C312.411,612.53 303.531,575.005 303.212,515.248C303.207,514.287 303.204,513.317 303.204,512.34ZM102.062,510.992L117.938,509.008C117.938,509.008 127.035,582 200,582C272.965,582 282.062,509.008 282.062,509.008L297.938,510.992C297.938,510.992 287.035,598 200,598C122.405,598 105.322,528.842 102.53,513.841C102.19,512.016 102.062,510.992 102.062,510.992Z"/>
        <path id="primary-outline" d="M83.319,517.516L94.3,512.238C94.3,573.51 85.692,611.897 85.692,611.897L74.308,608.103C74.308,608.103 83.066,577.009 83.314,519.811C83.317,519.051 83.319,518.286 83.319,517.516ZM305.204,512.34L316,520C316,578.728 325.692,608.103 325.692,608.103L314.308,611.897C314.308,611.897 305.44,574.313 305.208,514.443C305.205,513.746 305.204,513.045 305.204,512.34ZM104.046,510.744L115.954,509.256C115.954,509.256 125.276,584 200,584C274.724,584 284.046,509.256 284.046,509.256L295.954,510.744C295.954,510.744 285.276,596 200,596C124.318,596 107.393,528.849 104.543,513.739C104.181,511.823 104.046,510.744 104.046,510.744Z" fill="$[primary]"/>
        <path id="accent-outline" d="M86.319,517.516L91.3,512.238C91.3,572.874 82.846,610.949 82.846,610.949L77.154,609.051C77.154,609.051 86.1,577.537 86.315,519.488C86.317,518.834 86.319,518.177 86.319,517.516ZM308.204,512.34L313,520C313,579.364 322.846,609.051 322.846,609.051L317.154,610.949C317.154,610.949 308.506,573.877 308.211,515.043C308.206,514.149 308.204,513.248 308.204,512.34ZM107.023,510.372L112.977,509.628C112.977,509.628 122.638,587 200,587C277.362,587 287.023,509.628 287.023,509.628L292.977,510.372C292.977,510.372 282.638,593 200,593C126.554,593 110.218,527.732 107.492,513.212C107.151,511.395 107.023,510.372 107.023,510.372Z" fill="$[accent]"/>
    </g>
</svg>
