<svg width="100%" height="100%" viewBox="0 0 400 600" version="1.1" xmlns="http://www.w3.org/2000/svg">
    <path id="primary" d="M80,610C80,610 90,574 90,514C110,504 110,508 110,508C110,508 120,590 200,590C280,590 290,508 290,508C290,508 290,504 310,514C310,574 320,610 320,610L80,610Z" fill="$[primary]" stroke-width="6px"/>
    <path d="M82,514L98,514C98,575.696 87.589,612.53 87.589,612.53L72.411,607.47C72.411,607.47 81.496,574.151 81.98,518.606C81.993,517.087 82,515.552 82,514ZM302,514L318,514C318,572.304 327.589,607.47 327.589,607.47L312.411,612.53C312.411,612.53 302.428,577.212 302.013,517.815C302.004,516.554 302,515.283 302,514ZM102.062,508.992L117.938,507.008C117.938,507.008 127.035,582 200,582C272.965,582 282.062,507.008 282.062,507.008L297.938,508.992C297.938,508.992 287.035,598 200,598C123.944,598 106.024,530.032 102.713,512.884C102.235,510.409 102.062,508.992 102.062,508.992Z"/>
    <path d="M84,514L96,514C96,575.272 85.692,611.897 85.692,611.897L74.308,608.103C74.308,608.103 83.501,574.548 83.981,518.545C83.993,517.046 84,515.531 84,514ZM304,514L316,514C316,572.728 325.692,608.103 325.692,608.103L314.308,611.897C314.308,611.897 304.51,577.082 304.019,518.554C304.006,517.052 304,515.534 304,514ZM104.046,508.744L115.954,507.256C115.954,507.256 125.276,584 200,584C274.724,584 284.046,507.256 284.046,507.256L295.954,508.744C295.954,508.744 285.276,596 200,596C123.577,596 107.068,525.922 104.463,511.37C104.161,509.685 104.046,508.744 104.046,508.744Z" fill="$[accent]"/>
    <path d="M87,514L93,514C93,574.636 82.846,610.949 82.846,610.949L77.154,609.051C77.154,609.051 86.624,574.728 86.989,517.411C86.996,516.283 87,515.146 87,514ZM307,514L313,514C313,573.364 322.846,609.051 322.846,609.051L317.154,610.949C317.154,610.949 307.372,575.966 307.01,517.336C307.003,516.233 307,515.12 307,514ZM107.023,508.372L112.977,507.628C112.977,507.628 122.638,587 200,587C277.362,587 287.023,507.628 287.023,507.628L292.977,508.372C292.977,508.372 282.638,593 200,593C126.746,593 110.303,526.501 107.514,511.398C107.156,509.463 107.023,508.372 107.023,508.372Z" fill="$[secondary]"/>
</svg>
