<svg width="100%" height="100%" viewBox="0 0 400 600" version="1.1" xmlns="http://www.w3.org/2000/svg" >
    <g id="football-ponies">
        <path id="footballPrimary" d="M120,505C120,540 170,530 200,550C230,530 280,540 280,505C310,480 370,490 380,500C390,510 390.07,520.41 395,550C400,580 400,570 400,610L0,610C0,570 0,580.41 5,550.41C9.93,520.82 10,511.03 20,500C29.5,489.52 90,480 120,505Z" fill="$[primary]" stroke-width="6px" stroke="black"/>
        <path id="collarSecondary" d="M120,505C120,540 170,530 200,550C230,530 280,540 280,505L295,495C300,555 240,540 200,570C160,540 100,555 105,495L120,505Z" fill="$[secondary]" stroke-width="2px" stroke="black"/>
        <g id="Verticle-Stripes" >
            <path id="vStripes1" d="M32,580L20,580L20,500L32,494L32,580ZM43,492L55,490L55,580L43,580L43,492ZM357,580L345,580L345,490L357,492L357,580ZM368,494L380,500L380,580L368,580L368,494Z" fill="$[secondary]" stroke-width="2px" stroke="black"/>
        </g>
        <path id="footballStroke" d="M120,505C120,540 170,530 200,550C230,530 280,540 280,505C310,480 370,490 380,500C390,510 390.07,520.41 395,550C400,580 400,570 400,610L0,610C0,570 0,580 5,550C9.93,520.41 10,511.03 20,500C29.5,489.52 90,480 120,505Z" style="fill:none;fill-rule:nonzero;stroke:black;stroke-width:6px;"/>
        <path id="shoulderpads" d="M19.5,570C19.5,570 92,567.89 101,550M381,570C381,570 310,567.89 301,550" style="fill:none;fill-rule:nonzero;stroke:black;stroke-width:2px;"/>
    </g>
</svg>
