<svg version="1.2" xmlns="http://www.w3.org/2000/svg" viewBox="0 0 400 600" width="400" height="600">
    <g id="Body">
        <path id="Body1" d="M12,612C12,612 0,530 60,530C70,530 60,520 120,510C120,510 170,300 200,300C230,300 280,510 280,510C340,520 330,530 340,530C400,530 388,612 388,612" fill="$[skinColor]" stroke="black" stroke-width="6"/>
        <path id="collar-bone" d="M71,545C71,545 117.9,542 153.1,555M329,545C329,545 282.1,542 246.9,555"/>
        <path id="shoulder-def-right" d="M324,537C324,537 328.755,529.721 345.255,530.221L324,537Z"/>
        <path id="shoulder-def-left" d="M75,537C75,537 69.426,529.908 52.926,530.408L75,537Z"/>
    </g>
</svg>
