<svg width="100%" height="100%" viewBox="0 0 400 600" version="1.1" style="fill-rule:evenodd;clip-rule:evenodd;stroke-linejoin:round;stroke-miterlimit:2;">
    <g>
        <path id="soul_stache-soul" d="M188,458C190,456 210,456 212,458C214,460 204,474 200,474C196,474 186,460 188,458Z" style="fill:$[hairColor];"/>
        <path id="soul_stache-right" d="M310,410C330,390 340,330 340,300L350,300C350,300 360,370 340,430C330,450 280,500 220,500C210,500 250,471.2 250,450C250,430 240,430 240,420C240,410 270,450 310,410Z" style="fill:$[hairColor];"/>
        <path id="soul_stache-left" d="M60,300C60,330 70,390 90,410C130,450 160,410 160,420C160,430 150,430 150,450C150,471.2 190,500 180,500C120,500 70,450 60,430C40,370 50,300 50,300L60,300Z" style="fill:$[hairColor];"/>
    </g>
</svg>
