<svg width="100%" height="100%" viewBox="0 0 400 600" >
    <path id="crop" d="M340,210C340,160.564 301.361,117.209 255.93,102.966C189.776,82.227 109.28,98.66 73.975,162.627C66.352,176.437 60,193.933 60,210C63.887,210 67.774,210.303 71.641,210.703C75.04,211.055 78.5,213.009 81.797,212.109C83.826,211.556 89.349,205.991 90,205.547C92.765,203.662 95.627,201.828 98.75,200.625C110.246,196.197 122.762,194.792 135,195C167.644,195.554 167.232,200 200,200C229.137,200 257.771,192.124 286.875,196.641C295.993,198.056 302.624,200.518 310,205.547C310.651,205.991 316.174,211.556 318.203,212.109C321.5,213.009 324.96,211.055 328.359,210.703C332.226,210.303 336.113,210 340,210Z" fill="$[hairColor]"/>
</svg>
