<svg width="100%" height="100%" viewBox="0 0 400 600" version="1.1" >
    <g id="short-fade" >
        <path id="Short-Fade" d="M60,310L50,310L50,300C50,160 100,100 200,100C300,100 350,160 350,300L350,310L340,310L340,290C340,285 330,270 325,265C320,260 320,210 310,200C270,160 250,200 200,200C150,200 130,160 90,200C80,210 80,260 75,265C70,270 60,285 60,290L60,310Z" style="fill:url(#_Linear1);fill-rule:nonzero;"/>
    </g>
    <path id="crop" d="M340,210C340,161.705 302.633,117.656 257.48,103.47C191.18,82.641 110.25,98.244 73.975,162.627C66.116,176.575 60,193.672 60,210C68.565,210 68.354,210.712 76.757,211.875C78.423,212.106 80.279,212.834 81.797,212.109C91.287,207.574 88.98,204.105 98.75,200.625C111.834,195.965 121.195,195.022 135,195C156.87,194.966 178.099,200.243 200,200C229.126,199.677 257.695,192.794 286.875,196.641C295.934,197.835 302.395,200.624 310,205.547C312.94,207.45 315.044,210.6 318.203,212.109C319.721,212.834 321.577,212.106 323.243,211.875C331.646,210.712 331.435,210 340,210Z" style="fill:$[hairColor];fill-rule:nonzero;"/>
    <defs>
        <linearGradient id="_Linear1" x1="0" y1="0" x2="1" y2="0" gradientUnits="userSpaceOnUse" gradientTransform="matrix(0,210,-210,0,200,100)">
        <stop offset="0" style="stop-color:black;stop-opacity:0.25"/>
        <stop offset="1" style="stop-color:black;stop-opacity:0"/>
        </linearGradient>
    </defs>
</svg>
