<svg width="100%" height="100%" viewBox="0 0 400 600">
    <g id="short-fade">
        <path id="Short-Fade" d="M60,310L50,310L50,300C50,160 100,100 200,100C300,100 350,160 350,300L350,310L340,310L340,290C340,285 330,270 325,265C320,260 320,210 310,200C270,160 253.571,161.905 203.571,161.905C153.571,161.905 130,160 90,200C80,210 80,260 75,265C70,270 60,285 60,290L60,310Z" style="fill:url(#_Linear1);fill-rule:nonzero;"/>
    </g>
    <path id="crop" d="M340,210C340,161.034 302.335,118.226 257.48,103.47C191.294,81.698 109.436,98.377 73.975,162.627C66.352,176.437 60,193.932 60,210C63.887,210 67.774,210.303 71.641,210.703C75.04,211.054 78.5,213.008 81.797,212.109C85.079,211.214 87.08,207.747 90.087,206.154C97.372,202.295 105.452,200.742 113.594,199.921C132.77,197.989 200.532,198.571 200.595,198.571C229.515,198.571 258.574,196.978 287.344,199.921C295.366,200.742 303.01,202.251 310.087,206.154C313.025,207.775 314.966,211.226 318.203,212.109C321.5,213.008 324.96,211.054 328.359,210.703C332.226,210.303 336.113,210 340,210Z" style="fill:$[hairColor];fill-rule:nonzero;"/>
    <defs>
        <linearGradient id="_Linear1" x1="0" y1="0" x2="1" y2="0" gradientUnits="userSpaceOnUse" gradientTransform="matrix(0,210,-210,0,200,100)">
         <stop offset="0" style="stop-color:black;stop-opacity:0.25"/>
         <stop offset="1" style="stop-color:black;stop-opacity:0"/>
        </linearGradient>
    </defs>
</svg>
