
<svg width="100%" height="100%" viewBox="0 0 75 50" >
    <g id="eye">
        <path id="white" d="M6.19,40.49L5.36,18.42C5.36,18.42 7.63,14.55 22.45,18.64C52.38,26.9 64.9,23.11 64.9,23.11L70.94,34.83C70.94,34.83 63.89,35.44 41.06,37.44C18.22,39.44 6.19,40.49 6.19,40.49Z" style="fill:#f5f3ee;fill-rule:nonzero;"/>
        <path id="black" d="M38.943,36.946C34,37.373 29.572,32.847 29.046,26.808C28.52,20.769 32.148,19.048 37.091,18.609C42.045,18.182 46.418,19.201 46.944,25.24C47.47,31.279 43.897,36.507 38.943,36.946Z" fill="$[eyeColor]"/>
        <path id="black1"  d="M38.468,32.341C36,32.554 33.79,30.294 33.527,27.279C33.264,24.264 35.076,23.404 37.544,23.185C40.017,22.972 42.201,23.481 42.463,26.496C42.726,29.512 40.942,32.122 38.468,32.341Z" fill="black"/>
        <path id="black2" class="reflection"  d="M38.285,30.559C36.775,30.69 35.422,29.306 35.261,27.461C35.1,25.616 36.209,25.09 37.719,24.956C39.233,24.826 40.569,25.137 40.73,26.982C40.89,28.828 39.799,30.425 38.285,30.559Z" fill="black"/>
        <path id="Shape-1"  d="M6.19,40.49C6.19,40.49 2.41,12.46 9.05,15.75C19.54,20.95 64.9,23.11 64.9,23.11L70.94,34.83" style="fill:none;fill-rule:nonzero;stroke:#000;stroke-width:6px;"/>
    </g>
</svg>
