<svg width="100%" height="100%" viewBox="0 0 400 600" version="1.1" xmlns="http://www.w3.org/2000/svg" >
    <g id="eye3">
        <path id="path1251" d="M259.01,349.54C245.144,349.142 234.43,334.189 234.43,321.228C249.405,321.235 268.922,321.328 285.68,320.953C285.884,333.744 273.943,349.968 259.01,349.54Z" style="fill:#fff;fill-rule:nonzero;"/>
        <path id="path1255" d="M259.552,321.677C244.885,321.677 244.885,343.677 259.552,343.677C274.218,343.677 274.218,321.677 259.552,321.677Z" fill="$[eyeColor]"/>
        <path id="path12551" d="M259.552,327.177C252.218,327.177 252.218,338.177 259.552,338.177C266.885,338.177 266.885,327.177 259.552,327.177Z" style="fill-rule:nonzero;"/>
        <path d="M258.938,352.039C251.28,351.819 244.456,347.649 239.583,341.675C234.804,335.817 231.93,328.248 231.93,321.228C231.93,320.565 232.194,319.929 232.663,319.46C233.132,318.991 233.768,318.728 234.431,318.728C249.389,318.735 268.885,318.829 285.624,318.454C286.29,318.439 286.934,318.69 287.413,319.152C287.893,319.614 288.169,320.248 288.18,320.914C288.291,327.857 285.156,335.754 279.915,341.836C274.6,348.005 267.161,352.275 258.938,352.039ZM259.081,347.041C265.791,347.233 271.79,343.605 276.127,338.572C279.917,334.174 282.468,328.677 283.054,323.509C267.892,323.8 250.85,323.744 237.072,323.73C237.652,328.92 239.976,334.247 243.457,338.515C247.408,343.357 252.873,346.862 259.081,347.041Z"/>
    </g>
</svg>
