<svg width="100%" height="100%" viewBox="0 0 66 56">
    <g id="eye1">
        <path id="Shape-7" d="M63,43C63,43 58,53 28,53C-2,53 3,43 3,43C3,43 3,3 33,3C63,3 63,43 63,43Z" style="fill:white;fill-rule:nonzero;stroke:black;stroke-width:5px;"/>
        <g id="Shape-71" transform="matrix(1.86667,0,0,1.75,-28.6,-21)">
            <path d="M33,38C23,38 23,18 33,18C43,18 43,38 33,38Z" fill="$[eyeColor]"/>
        </g>
        <g id="Shape-72" transform="matrix(0.933333,0,0,0.875,2.2,3.5)">
            <path d="M33,38C23,38 23,18 33,18C43,18 43,38 33,38Z" style="fill-rule:nonzero;"/>
        </g>
        <g id="Shape-73" transform="matrix(0.466667,0,0,0.4375,12.5683,6.92481)">
            <path d="M33,38C23,38 23,18 33,18C43,18 43,38 33,38Z" style="fill:white;fill-rule:nonzero;"/>
        </g>
    </g>
</svg>
