<svg width="100%" height="100%" viewBox="0 0 75 50" version="1.1" >
    <g id="eye">
        <path id="white" d="M10,35L5,20C5,20 20,10 35,10C50,10 70,25 70,25L65,35L10,35Z" style="fill:#f5f3ee;fill-rule:nonzero;"/>
        <path id="black" d="M37.931,34.585C32.403,34.585 27.925,30.119 27.925,24.579C27.925,19.051 32.403,14.585 37.931,14.585C43.459,14.585 47.925,19.051 47.925,24.579C47.925,30.119 43.459,34.585 37.931,34.585Z" fill="$[eyeColor]"/>
        <path id="black1" d="M37.928,29.588C35.162,29.588 32.922,27.354 32.922,24.582C32.922,21.816 35.162,19.582 37.928,19.582C40.694,19.582 42.928,21.816 42.928,24.582C42.928,27.354 40.694,29.588 37.928,29.588Z" style="fill-rule:nonzero;"/>
        <path id="blackLine" d="M10,35L5,20.72C5,20.72 25,10 35,10C45,10 70,25 70,25L65,35" style="fill:none;fill-rule:nonzero;stroke:#000;stroke-width:6px;"/>
    </g>
</svg>
