
<svg width="100%" height="100%" viewBox="0 0 66 56" >
    <g id="eye1">
        <path id="Shape-7"  d="M63,43C63,43 58,53 28,53C-2,53 3,43 3,43C3,43 3,3 33,3C63,3 63,43 63,43Z" style="fill:#fff;fill-rule:nonzero;stroke:#000;stroke-width:5px;"/>
        <path id="Shape-71"  d="M33,45.5C14.333,45.5 14.333,10.5 33,10.5C51.667,10.5 51.667,45.5 33,45.5Z" fill="$[eyeColor]"/>
        <path id="Shape-72"  d="M33,36.75C23.667,36.75 23.667,19.25 33,19.25C42.333,19.25 42.333,36.75 33,36.75Z" fill="black"/>
        <path id="Shape-73" class="reflection"  d="M32.98,33.901C26.78,33.901 26.78,22.276 32.98,22.276C39.18,22.276 39.18,33.901 32.98,33.901Z" fill="white"/>
    </g>
</svg>
