<svg width="100%" height="100%" viewBox="0 0 75 50" version="1.1" xmlns="http://www.w3.org/2000/svg" >
    <g id="eye">
        <path id="Shape-1" d="M5.55,28.46C5.55,28.46 17.08,11.77 40,11.77C62.92,11.77 68.58,28.46 68.58,28.46C68.58,28.46 62.85,39.92 39.93,39.92C17.01,39.92 5.55,28.46 5.55,28.46Z" style="fill:#f5f3ee;fill-rule:nonzero;"/>
        <path id="Shape-2" d="M39.93,34.04C33.59,34.04 28.47,28.92 28.47,22.58C28.47,16.25 33.59,11.12 39.93,11.12C46.27,11.12 51.39,16.25 51.39,22.58C51.39,28.92 46.27,34.04 39.93,34.04Z" fill="$[eyeColor]"/>
        <path id="Shape-21" d="M39.93,28.33C36.749,28.33 34.18,25.761 34.18,22.58C34.18,19.404 36.749,16.83 39.93,16.83C43.111,16.83 45.68,19.404 45.68,22.58C45.68,25.761 43.111,28.33 39.93,28.33Z" style="fill-rule:nonzero;"/>
        <path id="Layer-2" d="M5.55,28.46C2.68,25.6 17.08,9.77 40,9.77C62.92,9.77 71.44,25.6 68.58,28.46C65.71,31.33 62.92,16.27 40,16.27C17.08,16.27 8.41,31.33 5.55,28.46Z" style="fill-rule:nonzero;"/>
    </g>
</svg>
