<svg width="100%" height="100%" viewBox="0 0 75 50" version="1.1" xmlns="http://www.w3.org/2000/svg" >
    <g id="eye">
        <path id="white" d="M5,20C5,20 17.08,11.77 40,11.77C62.92,11.77 70,30 70,30C70,30 62.85,39.92 39.93,39.92C17.01,39.92 5,20 5,20Z" style="fill:#f5f3ee;fill-rule:nonzero;"/>
        <path id="black" d="M39.93,34.04C33.59,34.04 28.47,28.92 28.47,22.58C28.47,16.25 33.59,11.12 39.93,11.12C46.27,11.12 51.39,16.25 51.39,22.58C51.39,28.92 46.27,34.04 39.93,34.04Z" fill="$[eyeColor]"/>
        <path id="black1" d="M39.93,28.33C36.749,28.33 34.18,25.761 34.18,22.58C34.18,19.404 36.749,16.83 39.93,16.83C43.111,16.83 45.68,19.404 45.68,22.58C45.68,25.761 43.111,28.33 39.93,28.33Z" style="fill-rule:nonzero;"/>
        <path id="black2" d="M5,20C2.13,17.13 17.2,10.45 40,8.1C70,5 72.87,27.13 70,30C67.13,32.87 62.92,16.27 40,16.27C17.08,16.27 7.87,22.87 5,20Z" style="fill-rule:nonzero;"/>
    </g>
</svg>
