<svg width="100%" height="100%" viewBox="0 0 75 50" version="1.1" xmlns="http://www.w3.org/2000/svg" >
    <g id="eye">
        <path id="white" d="M5,35C5,35 17.08,5 40,5C62.92,5 70,35 70,35C70,35 62.85,42.92 39.93,42.92C17.01,42.92 5,35 5,35Z" style="fill:#f5f3ee;fill-rule:nonzero;"/>
        <path id="black" d="M5,35.6C2.13,32.73 17.08,1.88 40,1.88C62.92,1.88 72.87,32.13 70,35C67.13,37.87 62.92,6.73 40,6.73C17.08,6.73 7.87,38.46 5,35.6Z" style="fill-rule:nonzero;"/>
        <path id="black1" d="M39.932,37.585C33.299,37.585 27.925,32.226 27.925,25.578C27.925,18.944 33.299,13.585 39.932,13.585C46.566,13.585 51.925,18.944 51.925,25.578C51.925,32.226 46.566,37.585 39.932,37.585Z" fill="$[eyeColor]"/>
        <path id="black2" d="M39.929,31.589C36.61,31.589 33.921,28.907 33.921,25.581C33.921,22.263 36.61,19.581 39.929,19.581C43.247,19.581 45.929,22.263 45.929,25.581C45.929,28.907 43.247,31.589 39.929,31.589Z" style="fill-rule:nonzero;"/>
    </g>
</svg>
