<svg width="100%" height="100%" viewBox="0 0 60 40" version="1.1">
    <g id="eye2">
        <path id="Shape-10"  d="M55.37,34.72C55.37,34.72 58.4,2.3 28.53,5.07C-1.35,7.83 7.21,35.16 7.21,35.16" style="fill:#fff;fill-rule:nonzero;stroke:#000;stroke-width:5px;"/>
        <path id="Shape-101"  d="M31.157,33.45C25.365,33.975 20.273,29.741 19.731,23.949C19.188,18.175 23.44,13.066 29.214,12.541C35.006,11.998 40.098,16.233 40.64,22.025C41.165,27.799 36.931,32.908 31.157,33.45Z" fill="$[eyeColor]"/>
        <path id="Shape-102" d="M30.717,28.72C27.545,29.008 24.757,26.689 24.46,23.517C24.163,20.355 26.491,17.557 29.653,17.27C32.825,16.973 35.613,19.292 35.91,22.463C36.198,25.625 33.879,28.423 30.717,28.72Z" style="fill-rule:nonzero;"/>
    </g>
</svg>
