
<svg width="100%" height="100%" viewBox="0 0 60 40" >
    <g id="eye2">
        <path id="Shape-10"  d="M55.37,34.72C55.37,34.72 58.4,2.3 28.53,5.07C-1.35,7.83 7.21,35.16 7.21,35.16" style="fill:#fff;fill-rule:nonzero;stroke:#000;stroke-width:5px;"/>
        <path id="Shape-101"  d="M31.157,33.45C25.365,33.975 20.273,29.741 19.731,23.949C19.188,18.175 23.44,13.066 29.214,12.541C35.006,11.998 40.098,16.233 40.64,22.025C41.165,27.799 36.931,32.908 31.157,33.45Z" fill="$[eyeColor]"/>
        <path id="Shape-102"  d="M30.717,28.72C27.545,29.008 24.757,26.689 24.46,23.517C24.163,20.355 26.491,17.557 29.653,17.27C32.825,16.973 35.613,19.292 35.91,22.463C36.198,25.625 33.879,28.423 30.717,28.72Z" fill="black"/>
        <path id="Shape-103" class="reflection"  d="M30.464,26.535C28.534,26.71 26.837,25.299 26.656,23.368C26.475,21.443 27.892,19.74 29.817,19.565C31.748,19.384 33.445,20.796 33.626,22.726C33.801,24.651 32.389,26.354 30.464,26.535Z" fill="white"/>
    </g>
</svg>
