<?xml version="1.0" encoding="UTF-8" standalone="no"?>
<!DOCTYPE svg PUBLIC "-//W3C//DTD SVG 1.1//EN" "http://www.w3.org/Graphics/SVG/1.1/DTD/svg11.dtd">
<svg width="100%" height="100%" viewBox="0 0 60 40" version="1.1" xmlns="http://www.w3.org/2000/svg" xmlns:xlink="http://www.w3.org/1999/xlink" xml:space="preserve" xmlns:serif="http://www.serif.com/" style="fill-rule:evenodd;clip-rule:evenodd;">
    <g id="eye2">
        <path id="Shape-10" serif:id="Shape 10" d="M55.37,34.72C55.37,34.72 58.4,2.3 28.53,5.07C-1.35,7.83 7.21,35.16 7.21,35.16" style="fill:white;fill-rule:nonzero;stroke:black;stroke-width:5px;"/>
        <g id="Shape-101" serif:id="Shape 10">
            <path d="M30.74,28.97C27.43,29.27 24.52,26.85 24.21,23.54C23.9,20.24 26.33,17.32 29.63,17.02C32.94,16.71 35.85,19.13 36.16,22.44C36.46,25.74 34.04,28.66 30.74,28.97Z" style="fill:$[eyeColor];fill-rule:nonzero;"/>
            <path d="M30.921,30.962C26.51,31.362 22.632,28.137 22.219,23.727C21.805,19.325 25.045,15.43 29.446,15.028C33.858,14.617 37.738,17.841 38.152,22.256L38.152,22.259C38.552,26.657 35.325,30.548 30.924,30.962L30.921,30.962ZM30.74,28.97C34.04,28.66 36.46,25.74 36.16,22.44C35.85,19.13 32.94,16.71 29.63,17.02C26.33,17.32 23.9,20.24 24.21,23.54C24.52,26.85 27.43,29.27 30.74,28.97Z"/>
        </g>
        <g id="Shape-102" serif:id="Shape 10" transform="matrix(0.416605,0,0,0.416601,17.6093,13.4148)">
            <path d="M30.74,28.97C27.43,29.27 24.52,26.85 24.21,23.54C23.9,20.24 26.33,17.32 29.63,17.02C32.94,16.71 35.85,19.13 36.16,22.44C36.46,25.74 34.04,28.66 30.74,28.97Z" style="fill-rule:nonzero;"/>
            <path d="M30.74,28.97C27.43,29.27 24.52,26.85 24.21,23.54C23.9,20.24 26.33,17.32 29.63,17.02C32.94,16.71 35.85,19.13 36.16,22.44C36.46,25.74 34.04,28.66 30.74,28.97ZM30.299,24.19C30.957,24.124 31.436,23.54 31.38,22.881C31.314,22.223 30.737,21.738 30.071,21.8L30.065,21.801C29.411,21.86 28.928,22.438 28.99,23.092C29.052,23.757 29.634,24.246 30.299,24.19Z"/>
        </g>
    </g>
</svg>
