
<svg width="100%" height="100%" viewBox="0 0 75 50" >
    <g id="eye4">
        <path id="Shape-9"  d="M68.08,23.19C68.08,23.19 69.97,38.07 40.21,41.86C15.41,45.02 6.66,15.89 6.03,10.93C25.87,8.4 65.55,3.35 68.08,23.19Z" style="fill:#fff;fill-rule:nonzero;stroke:#000;stroke-width:5px;"/>
        <path id="Shape-7-copy"  d="M38.474,12.372C54.331,10.344 57.353,34.101 41.496,36.129C25.639,38.14 22.617,14.384 38.474,12.372Z" fill="$[eyeColor]"/>
        <path id="Shape-7-copy1"  d="M39.23,18.311C47.158,17.297 48.669,29.175 40.74,30.189C32.812,31.195 31.301,19.317 39.23,18.311Z" fill="black"/>
        <path id="reflection-2" class="reflection" d="M40.057,20.217C42.264,20.217 44.057,21.923 44.057,24.131C44.057,26.338 42.264,28.131 40.057,28.131C37.849,28.131 36.057,26.338 36.057,24.131C36.057,21.923 37.849,20.217 40.057,20.217Z" style="fill:#fff;"/>
    </g>
</svg>
