
<svg width="100%" height="100%" viewBox="0 0 85 50" >
    <g id="eye5">
        <path id="White" d="M73.67,39.73C77.59,29.26 76.02,14.35 76.02,14.35C76.02,14.35 40.16,8.08 30.22,9.13C20.27,10.17 5.88,16.72 5.88,16.72C5.88,16.72 4.44,26.93 13.48,41.06L73.67,39.73Z" fill="white"/>
        <path id="Shape-9"  d="M45.656,39.798C41.233,40.259 36.906,33.501 35.975,24.666C35.043,15.831 37.86,8.314 42.282,7.843C46.694,7.382 51.021,14.139 51.953,22.974C52.884,31.809 50.068,39.327 45.656,39.798Z" fill="$[eyeColor]"/>
        <path id="Shape-91"  d="M44.796,31.677C42.621,31.903 40.494,28.581 40.035,24.236C39.577,19.892 40.962,16.195 43.137,15.964C45.306,15.737 47.434,19.06 47.892,23.404C48.35,27.749 46.965,31.445 44.796,31.677Z" fill="black"/>
        <path id="Shape-92" class="reflection"  d="M44.638,29.898C43.014,30.068 41.425,27.585 41.082,24.34C40.74,21.095 41.775,18.333 43.399,18.16C45.02,17.991 46.609,20.473 46.951,23.718C47.294,26.964 46.259,29.725 44.638,29.898Z" fill="white"/>
        <path id="Outline" d="M73.67,39.73C78.12,34.24 76.02,14.35 76.02,14.35C76.02,14.35 40.16,8.08 30.22,9.13C20.27,10.17 5.88,16.72 5.88,16.72C5.88,16.72 7.45,31.64 13.48,41.06" style="fill:none;fill-rule:nonzero;stroke:#000;stroke-width:5px;"/>
    </g>
</svg>
