
<svg width="100%" height="100%" viewBox="0 0 80 40" >
    <g id="eye6">
        <path id="Shape-9"  d="M73.63,30.14C73.63,30.14 62.25,5.74 32.3,7.42C12.33,8.54 7.9,18.8 7.9,18.8L13.73,33.5C43.96,36.81 73.63,30.14 73.63,30.14Z" fill="white"/>
        <path id="Shape-91"  d="M40.686,31.988C46.758,31.647 51.389,26.466 51.048,20.384C50.707,14.312 45.526,9.681 39.454,10.022C33.383,10.363 28.752,15.544 29.082,21.615C29.423,27.687 34.615,32.329 40.686,31.988Z" fill="$[eyeColor]"/>
        <path id="Shape-92"  d="M40.376,26.496C43.412,26.326 45.727,23.736 45.557,20.694C45.386,17.658 42.796,15.343 39.76,15.514C36.724,15.684 34.409,18.274 34.574,21.31C34.744,24.346 37.34,26.667 40.376,26.496Z" fill="black"/>
        <path id="Shape-93" class="reflection"  d="M40.263,24.5C42.195,24.391 43.668,22.743 43.56,20.807C43.451,18.875 41.803,17.402 39.871,17.51C37.939,17.619 36.466,19.267 36.571,21.199C36.679,23.131 38.331,24.608 40.263,24.5Z" fill="white"/>
        <path id="Outline" d="M73.63,30.14C73.63,30.14 72.51,10.17 32.3,7.42C12.33,8.54 7.9,18.8 7.9,18.8L13.73,33.5" style="fill:none;fill-rule:nonzero;stroke:#000;stroke-width:5px;"/>
    </g>
</svg>
