<svg width="100%" height="100%" viewBox="0 0 70 46" version="1.1">
    <g id="eye8">
        <path id="Shape-10"  d="M67,35C67,31 73,3 43,3C13,3 3,15 3,23C3,31 15,43 27,43C39,43 67,39 67,35Z" style="fill:#fff;fill-rule:nonzero;stroke:#000;stroke-width:5px;"/>
        <path id="Shape-101" d="M39,35.5C32.083,35.5 26.5,29.917 26.5,23C26.5,16.083 32.083,10.5 39,10.5C45.917,10.5 51.5,16.083 51.5,23C51.5,29.917 45.917,35.5 39,35.5Z" fill="$[eyeColor]"/>
        <path id="Shape-102" d="M39,29.25C35.542,29.25 32.75,26.458 32.75,23C32.75,19.542 35.542,16.75 39,16.75C42.458,16.75 45.25,19.542 45.25,23C45.25,26.458 42.458,29.25 39,29.25Z" style="fill-rule:nonzero;"/>
    </g>
</svg>
