<svg width="100%" height="100%" viewBox="0 0 400 600" version="1.1">
    <g id="eye9">
        <path id="Shape-10"  d="M240,340C240,336 234,320 264,320C284,320 300,328 300,332C300,336 288,344 280,344C276,344 240,344 240,340Z" style="fill:#fff;fill-rule:nonzero;"/>
        <path id="Shape-101" d="M268,343C263.073,343 259.095,338.078 259.095,332C259.095,325.922 263.073,321 268,321C272.927,321 276.905,325.922 276.905,332C276.905,338.078 272.927,343 268,343Z" fill="$[eyeColor]"/>
        <path id="Shape-102" d="M268,337.5C265.536,337.5 263.548,335.039 263.548,332C263.548,328.961 265.536,326.5 268,326.5C270.464,326.5 272.452,328.961 272.452,332C272.452,335.039 270.464,337.5 268,337.5Z" style="fill-rule:nonzero;"/>
        <path d="M237.5,340C237.5,338.79 236.96,336.49 237.015,333.864C237.08,330.713 237.906,327.185 240.781,324.164C244.228,320.544 250.944,317.5 264,317.5C278.585,317.5 291.115,321.644 297.328,325.523C299.178,326.679 300.518,327.848 301.314,328.888C302.163,329.995 302.5,331.075 302.5,332C302.5,333.66 301.278,335.985 298.888,338.193C294.466,342.277 286.142,346.5 280,346.5C276.753,346.5 252.723,346.472 243.241,344.394C241.053,343.914 239.5,343.228 238.736,342.566C237.836,341.786 237.5,340.883 237.5,340ZM242.426,338.964C242.624,339.044 242.865,339.134 243.083,339.199C244.362,339.579 246.131,339.886 248.198,340.148C258.928,341.506 277.227,341.5 280,341.5C285.059,341.5 291.854,337.883 295.496,334.519C296.191,333.878 296.764,333.251 297.155,332.656C297.285,332.459 297.422,332.295 297.476,332.135C297.399,332.02 297.248,331.802 297.12,331.662C296.561,331.054 295.73,330.42 294.68,329.765C288.965,326.196 277.415,322.5 264,322.5C253.054,322.5 247.293,324.576 244.403,327.612C242.116,330.014 241.907,332.94 242.04,335.292C242.121,336.721 242.318,337.992 242.426,338.964Z"/>
    </g>
</svg>
