<svg width="100%" height="100%" viewBox="0 0 400 600" version="1.1" xmlns="http://www.w3.org/2000/svg" >
    <g transform="matrix(1,0,0,1,-515.803,-882.797)">
        <g transform="matrix(1,0,0,1,518.803,882.797)">
            <path d="M185.225,302.148C184.056,305.817 181.241,314.651 179.399,320.35C177.913,325.011 174.949,329.062 170.954,331.887C167.775,334.106 164.106,336.129 161.092,337.339C159.62,337.851 158.074,338.112 156.516,338.112L92.941,338.112C86.015,338.112 82.392,332.488 82.392,325.562C82.392,325.562 80.757,305.045 80.445,301.11C80.37,300.174 80.414,299.232 80.576,298.307C81.599,292.406 86.75,287.912 92.941,287.912L173.213,287.912C178.96,287.912 183.81,291.783 185.31,297.053C185.782,298.723 185.753,300.495 185.225,302.148Z" style="fill:rgb(150,150,175);fill-opacity:0.54;stroke:black;stroke-width:1.04px;"/>
        </g>
        <g transform="matrix(1,0,0,1,512.803,882.797)">
            <path d="M216.856,302.148C216.329,300.495 216.3,298.723 216.772,297.053C218.272,291.783 223.122,287.912 228.869,287.912L309.14,287.912C315.332,287.912 320.483,292.406 321.506,298.307C321.667,299.232 321.712,300.174 321.637,301.11C321.325,305.045 319.69,325.562 319.69,325.562C319.69,332.488 316.067,338.112 309.14,338.112L245.566,338.112C244.008,338.112 242.461,337.851 240.99,337.339C237.976,336.129 234.307,334.106 231.127,331.887C227.133,329.062 224.169,325.011 222.683,320.35C220.841,314.651 218.026,305.817 216.856,302.148Z" style="fill:rgb(150,150,175);fill-opacity:0.54;stroke:black;stroke-width:1.04px;"/>
        </g>
        <g id="glare" transform="matrix(1,0,0,1,515.21,867.593)">
            <path d="M275,345L290,310M285,345L300,310M135,345L150,310M145,345L160,310" style="fill:none;fill-rule:nonzero;stroke:white;stroke-width:2px;stroke-linecap:butt;stroke-linejoin:miter;stroke-miterlimit:4;"/>
        </g>
        <g transform="matrix(1,0,0,1,515.803,804.771)">
            <path d="M83.316,362.662C85.355,361.624 87.663,361.038 90.106,361.038L184.049,361.038C189.641,361.038 194.522,364.105 197.102,368.647C201.566,369.102 200.573,369.084 205.012,368.591C207.6,364.08 212.464,361.038 218.033,361.038L311.976,361.038C314.242,361.038 316.39,361.542 318.317,362.443L324.638,358.459L324.726,358.598L324.726,358.415L351.658,358.415L351.658,362.316L325.835,362.316L321.901,364.795C324.617,367.195 326.459,370.564 326.883,374.358C326.965,375.073 326.977,375.794 326.92,376.511C326.633,380.337 324.585,406.038 324.585,406.038C324.585,414.317 320.255,421.038 311.976,421.038L237.53,421.038C236.164,421.039 234.806,420.838 233.498,420.443C229.12,418.904 223.325,415.634 218.83,412.213C215.161,409.411 212.441,405.55 211.039,401.151C208.839,394.253 204.937,382.011 203.544,377.643C203.336,376.99 203.206,376.318 203.153,375.64C199.74,375.321 202.332,375.323 198.929,375.64C198.876,376.318 198.745,376.99 198.537,377.643C197.145,382.011 193.243,394.253 191.043,401.151C189.641,405.55 186.921,409.411 183.252,412.213C178.757,415.634 172.962,418.904 168.583,420.443C167.276,420.838 165.917,421.039 164.552,421.038L90.106,421.038C81.827,421.038 77.496,414.317 77.496,406.038C77.496,406.038 75.448,380.337 75.161,376.511C75.104,375.794 75.117,375.073 75.199,374.358C75.606,370.718 77.317,367.469 79.855,365.091L75.45,362.316L49.628,362.316L49.628,358.415L76.56,358.415L76.56,358.598L76.647,358.459L83.316,362.662ZM213.856,380.175C215.026,383.844 217.841,392.677 219.683,398.377C221.169,403.038 224.133,407.088 228.127,409.914C231.307,412.133 234.976,414.156 237.99,415.366C239.461,415.877 241.008,416.138 242.566,416.138L304.14,416.138C311.067,416.138 314.69,410.515 314.69,403.588C314.69,403.588 316.325,383.072 316.637,379.137C316.712,378.201 316.667,377.259 316.506,376.334C315.483,370.433 310.332,365.939 304.14,365.939L225.869,365.939C220.122,365.939 215.272,369.81 213.772,375.08C213.3,376.75 213.329,378.522 213.856,380.175ZM188.225,380.175C188.753,378.522 188.782,376.75 188.31,375.08C186.81,369.81 181.96,365.939 176.213,365.939L97.941,365.939C91.75,365.939 86.599,370.433 85.576,376.334C85.414,377.259 85.37,378.201 85.445,379.137C85.757,383.072 87.392,403.588 87.392,403.588C87.392,410.515 91.015,416.138 97.941,416.138L159.516,416.138C161.074,416.138 162.62,415.877 164.092,415.366C167.106,414.156 170.775,412.133 173.954,409.914C177.949,407.088 180.913,403.038 182.399,398.377C184.241,392.677 187.056,383.844 188.225,380.175Z" style="fill:rgb(51,51,51);stroke:black;stroke-width:1.04px;"/>
        </g>
    </g>
</svg>
